<svg width="13" height="11" viewBox="0 0 13 11" fill="none" xmlns="http://www.w3.org/2000/svg">
<path d="M12.0312 5.79687L7.21875 10.3906C6.94531 10.6367 6.53516 10.6367 6.28906 10.3633C6.04297 10.0898 6.04297 9.67969 6.31641 9.43359L9.95312 5.96094L0.65625 5.96094C0.273438 5.96094 0 5.6875 0 5.30469C0 4.94922 0.273438 4.64844 0.65625 4.64844L9.95312 4.64844L6.31641 1.20312C6.04297 0.957031 6.04297 0.519531 6.28906 0.273437C6.53516 0 6.97266 0 7.21875 0.246094L12.0312 4.83984C12.168 4.97656 12.25 5.14062 12.25 5.30469C12.25 5.49609 12.168 5.66016 12.0312 5.79687Z" fill="white"/>
</svg>
