<svg viewBox="0 0 503 101" fill="none" xmlns="http://www.w3.org/2000/svg"><g clip-path="url(#clip0_1_2)"><path d="M502.839 73.4735C502.839 73.4735 502.582 75.7233 501.49 78.9374C500.655 81.7658 499.37 84.337 497.765 86.7154C497.251 87.4868 496.737 88.1939 496.159 88.901C492.948 92.7578 488.901 95.779 484.213 97.5789C483.442 97.9003 482.607 98.1574 481.836 98.4146C481.001 98.6717 480.166 98.8645 479.331 99.0574C477.918 99.3145 476.441 99.5073 474.964 99.5716H379.265C378.109 99.5716 377.21 98.8003 377.21 97.9003C377.21 91.7936 379.715 86.2012 383.697 82.1514C387.743 78.166 393.267 75.9162 399.432 75.9162H466.422C470.853 75.9162 474.45 72.3164 474.45 67.881C474.45 63.4456 470.853 59.7816 466.422 59.7816C465.844 59.7816 465.33 59.653 464.816 59.7816C461.605 59.7816 454.411 59.7173 445.933 59.7816H399.882C398.726 59.7816 397.57 59.8459 396.35 59.7816H395.9C388.385 59.7816 381.577 57.1461 376.439 52.5178C371.75 48.3395 368.411 42.7471 367.126 36.3833C366.933 35.4833 366.805 34.5191 366.676 33.6192C366.612 32.5907 366.548 31.5622 366.548 30.4694C366.548 29.3123 366.612 28.2195 366.741 27.0625C366.869 26.1625 366.998 25.2626 367.19 24.3627C368.539 17.806 372.072 12.0207 377.081 7.9067C377.146 7.9067 377.146 7.84242 377.21 7.77814C382.284 3.59986 388.771 1.0929 395.9 1.0929H497.444C498.214 1.4143 498.792 2.1214 498.792 2.89277L498.985 22.37C498.985 23.3342 498.214 24.1698 497.058 24.3627C496.866 24.4912 496.609 24.4912 496.352 24.4912C496.352 24.4912 478.432 24.427 458.714 24.3627H424.674C414.654 24.3627 399.882 24.6841 399.368 24.6841H399.111C398.726 24.6841 398.341 24.6841 398.02 24.8126C397.827 24.8126 397.57 24.8769 397.377 24.9412C393.78 25.6483 391.019 28.8624 391.019 32.7192C391.019 37.2189 394.68 40.8187 399.111 40.8187H399.368C399.368 40.8187 458.136 39.0831 477.662 40.8187C497.187 42.5542 504.187 60.0387 502.839 73.4735Z" fill="#333333"/><path d="M352.989 1.22134V74.4376C352.989 88.9008 341.3 100.6 326.848 100.6C326.142 100.6 325.628 100.021 325.628 99.3787V3.21406C325.628 1.41419 327.041 0 328.775 0C333.207 0 341.813 0 351.769 0C352.475 0 352.989 0.57853 352.989 1.22134Z" fill="#333333"/><path d="M312.34 47.4395C310.798 20.9557 289.282 0 262.82 0H213.237C186.711 0 165.13 20.9557 163.717 47.6323V52.9034C165.002 79.4515 186.711 100.6 213.237 100.6H262.82C287.612 100.6 308.293 82.087 311.954 57.9816C312.019 56.696 312.147 55.4746 312.276 54.1247C312.34 52.9034 312.468 51.6178 312.468 50.2679V49.9465C312.468 49.0465 312.34 48.2751 312.34 47.4395ZM280.868 73.6019C280.868 75.2732 279.455 76.6874 277.785 76.6874H198.336C196.602 76.6874 195.189 75.2732 195.189 73.6019V27.0624C195.189 25.2625 196.602 23.9769 198.336 23.9769H277.785C279.455 23.9769 280.868 25.2625 280.868 27.0624V73.6019Z" fill="#333333"/><path d="M150.1 50.2678C150.1 71.9305 132.694 90.3792 112.398 97.193C107.324 98.9286 101.865 99.8928 96.277 100.021H0C0 92.5005 3.14715 85.6867 8.34957 80.7371C13.4878 75.7874 20.617 76.6873 28.517 76.6873H96.4054C107.838 76.6873 117.087 70.7735 117.087 50.2035C117.087 37.7972 107.774 27.7051 96.4054 27.7051H27.2324V55.1761C27.2324 56.1834 26.4166 57 25.4101 57H1.82234C0.815889 57 0 56.1834 0 55.1761V9.57783C0 4.5639 4.11056 0.514191 9.1203 0.514191H96.3412C101.929 0.642754 107.388 1.67125 112.462 3.34256C132.694 10.1564 150.164 28.605 150.164 50.2678H150.1Z" fill="#333333"/></g><defs><clipPath id="clip0_1_2"><rect width="503" height="101" fill="white"/></clipPath></defs></svg>