<svg viewBox="0 0 36 36" fill="none" xmlns="http://www.w3.org/2000/svg"><path d="M17.5781 8.51562C22.5 8.51562 26.5625 12.5781 26.5625 17.5C26.5625 22.5 22.5 26.4844 17.5781 26.4844C12.5781 26.4844 8.59375 22.5 8.59375 17.5C8.59375 12.5781 12.5781 8.51562 17.5781 8.51562ZM17.5781 23.3594C20.7812 23.3594 23.3594 20.7812 23.3594 17.5C23.3594 14.2969 20.7812 11.7188 17.5781 11.7188C14.2969 11.7188 11.7188 14.2969 11.7188 17.5C11.7188 20.7812 14.375 23.3594 17.5781 23.3594ZM28.9844 8.20312C28.9844 7.03125 28.0469 6.09375 26.875 6.09375C25.7031 6.09375 24.7656 7.03125 24.7656 8.20312C24.7656 9.375 25.7031 10.3125 26.875 10.3125C28.0469 10.3125 28.9844 9.375 28.9844 8.20312ZM34.9219 10.3125C35.0781 13.2031 35.0781 21.875 34.9219 24.7656C34.7656 27.5781 34.1406 30 32.1094 32.1094C30.0781 34.1406 27.5781 34.7656 24.7656 34.9219C21.875 35.0781 13.2031 35.0781 10.3125 34.9219C7.5 34.7656 5.07812 34.1406 2.96875 32.1094C0.9375 30 0.3125 27.5781 0.15625 24.7656C0 21.875 0 13.2031 0.15625 10.3125C0.3125 7.5 0.9375 5 2.96875 2.96875C5.07812 0.9375 7.5 0.3125 10.3125 0.15625C13.2031 0 21.875 0 24.7656 0.15625C27.5781 0.3125 30.0781 0.9375 32.1094 2.96875C34.1406 5 34.7656 7.5 34.9219 10.3125ZM31.1719 27.8125C32.1094 25.5469 31.875 20.0781 31.875 17.5C31.875 15 32.1094 9.53125 31.1719 7.1875C30.5469 5.70312 29.375 4.45312 27.8906 3.90625C25.5469 2.96875 20.0781 3.20312 17.5781 3.20312C15 3.20312 9.53125 2.96875 7.26562 3.90625C5.70312 4.53125 4.53125 5.70312 3.90625 7.1875C2.96875 9.53125 3.20312 15 3.20312 17.5C3.20312 20.0781 2.96875 25.5469 3.90625 27.8125C4.53125 29.375 5.70312 30.5469 7.26562 31.1719C9.53125 32.1094 15 31.875 17.5781 31.875C20.0781 31.875 25.5469 32.1094 27.8906 31.1719C29.375 30.5469 30.625 29.375 31.1719 27.8125Z" fill="white"/></svg>