<svg viewBox="0 0 80 80" fill="none" xmlns="http://www.w3.org/2000/svg"><rect width="80" height="80" rx="40" fill="black"/><path d="M52.1875 27.6562C55.4688 30.9375 57.5 35.2344 57.5 39.9219C57.5 49.4531 49.5312 57.2656 39.9219 57.2656C37.0312 57.2656 34.2188 56.4844 31.6406 55.1562L22.5 57.5L24.9219 48.5156C23.4375 45.9375 22.5781 42.9688 22.5781 39.8438C22.5781 30.3125 30.3906 22.5 39.9219 22.5C44.6094 22.5 48.9844 24.375 52.1875 27.6562ZM39.9219 54.2969C47.8906 54.2969 54.5312 47.8125 54.5312 39.9219C54.5312 36.0156 52.8906 32.4219 50.1562 29.6875C47.4219 26.9531 43.8281 25.4688 40 25.4688C32.0312 25.4688 25.5469 31.9531 25.5469 39.8438C25.5469 42.5781 26.3281 45.2344 27.7344 47.5781L28.125 48.125L26.6406 53.4375L32.1094 51.9531L32.5781 52.2656C34.8438 53.5938 37.3438 54.2969 39.9219 54.2969ZM47.8906 43.5156C48.2812 43.75 48.5938 43.8281 48.6719 44.0625C48.8281 44.2188 48.8281 45.0781 48.4375 46.0938C48.0469 47.1094 46.3281 48.0469 45.5469 48.125C44.1406 48.3594 43.0469 48.2812 40.3125 47.0312C35.9375 45.1562 33.125 40.7812 32.8906 40.5469C32.6562 40.2344 31.1719 38.2031 31.1719 36.0156C31.1719 33.9062 32.2656 32.8906 32.6562 32.4219C33.0469 31.9531 33.5156 31.875 33.8281 31.875C34.0625 31.875 34.375 31.875 34.6094 31.875C34.9219 31.875 35.2344 31.7969 35.625 32.6562C35.9375 33.5156 36.875 35.625 36.9531 35.8594C37.0312 36.0938 37.1094 36.3281 36.9531 36.6406C36.1719 38.2812 35.2344 38.2031 35.7031 38.9844C37.4219 41.875 39.0625 42.8906 41.6406 44.1406C42.0312 44.375 42.2656 44.2969 42.5781 44.0625C42.8125 43.75 43.6719 42.7344 43.9062 42.3438C44.2188 41.875 44.5312 41.9531 44.9219 42.1094C45.3125 42.2656 47.4219 43.2812 47.8906 43.5156Z" fill="white"/></svg>