<svg viewBox="0 0 689 139" fill="none" xmlns="http://www.w3.org/2000/svg"><g clip-path="url(#clip0_1_18)"><path d="M688.779 101.117C688.779 101.117 688.427 104.213 686.932 108.637C685.788 112.529 684.028 116.068 681.829 119.341C681.125 120.403 680.421 121.376 679.629 122.349C675.231 127.657 669.687 131.815 663.266 134.292C662.21 134.734 661.066 135.088 660.01 135.442C658.866 135.796 657.722 136.061 656.579 136.327C654.643 136.68 652.62 136.946 650.597 137.034H519.51C517.927 137.034 516.695 135.973 516.695 134.734C516.695 126.33 520.126 118.633 525.581 113.06C531.123 107.575 538.69 104.479 547.134 104.479H638.896C644.966 104.479 649.893 99.5245 649.893 93.4204C649.893 87.3162 644.966 82.2737 638.896 82.2737C638.104 82.2737 637.4 82.0967 636.696 82.2737C632.298 82.2737 622.444 82.1852 610.831 82.2737H547.751C546.167 82.2737 544.584 82.3622 542.913 82.2737H542.296C532.002 82.2737 522.677 78.6466 515.639 72.277C509.216 66.5266 504.642 58.8302 502.882 50.0721C502.618 48.8335 502.443 47.5065 502.266 46.268C502.178 44.8526 502.091 43.4371 502.091 41.9331C502.091 40.3407 502.178 38.8367 502.355 37.2444C502.53 36.0058 502.707 34.7673 502.97 33.5289C504.818 24.5053 509.657 16.5433 516.518 10.8815C516.608 10.8815 516.608 10.793 516.695 10.7046C523.645 4.95426 532.531 1.50409 542.296 1.50409H681.389C682.444 1.94641 683.236 2.91955 683.236 3.98114L683.5 30.7864C683.5 32.1134 682.444 33.2634 680.861 33.5289C680.598 33.7057 680.246 33.7057 679.894 33.7057C679.894 33.7057 655.347 33.6174 628.338 33.5289H581.71C567.985 33.5289 547.751 33.9712 547.047 33.9712H546.695C546.167 33.9712 545.64 33.9712 545.2 34.148C544.936 34.148 544.584 34.2365 544.32 34.325C539.392 35.2982 535.611 39.7215 535.611 45.0294C535.611 51.222 540.625 56.1762 546.695 56.1762H547.047C547.047 56.1762 627.546 53.7876 654.292 56.1762C681.037 58.5647 690.626 82.6275 688.779 101.117Z" fill="black"/><path d="M483.518 1.68085V102.444C483.518 122.349 467.506 138.45 447.71 138.45C446.743 138.45 446.039 137.653 446.039 136.769V4.42331C446.039 1.94626 447.975 0 450.35 0C456.421 0 468.209 0 481.847 0C482.814 0 483.518 0.796195 483.518 1.68085Z" fill="black"/><path d="M427.837 65.288C425.725 28.84 396.253 0 360.006 0H292.088C255.753 0 226.192 28.84 224.256 65.5534V72.8076C226.017 109.344 255.753 138.45 292.088 138.45H360.006C393.966 138.45 422.294 112.971 427.309 79.7965C427.398 78.0272 427.573 76.3462 427.75 74.4884C427.837 72.8076 428.013 71.0384 428.013 69.1806V68.7383C428.013 67.4996 427.837 66.438 427.837 65.288ZM384.728 101.294C384.728 103.594 382.792 105.54 380.505 105.54H271.677C269.302 105.54 267.366 103.594 267.366 101.294V37.2443C267.366 34.7672 269.302 32.9979 271.677 32.9979H380.505C382.792 32.9979 384.728 34.7672 384.728 37.2443V101.294Z" fill="black"/><path d="M205.604 69.1804C205.604 98.9934 181.762 124.383 153.961 133.761C147.01 136.149 139.533 137.476 131.878 137.653H0C0 127.303 4.31091 117.925 11.4371 111.113C18.4753 104.301 28.2408 105.54 39.0621 105.54H132.054C147.714 105.54 160.384 97.4011 160.384 69.0919C160.384 52.0179 147.627 38.1288 132.054 38.1288H37.3024V75.9354C37.3024 77.3217 36.185 78.4455 34.8063 78.4455H2.49621C1.11759 78.4455 0 77.3217 0 75.9354V13.1813C0 6.28099 5.63057 0.707626 12.4928 0.707626H131.966C139.62 0.88456 147.098 2.30002 154.048 4.60014C181.762 13.9776 205.692 39.3673 205.692 69.1804H205.604Z" fill="black"/></g><defs><clipPath id="clip0_1_18"><rect width="689" height="139" fill="white"/></clipPath></defs></svg>