<svg width="20" height="24" viewBox="0 0 20 24" fill="none" xmlns="http://www.w3.org/2000/svg">
<path d="M3.75 2.25L2.71875 1.78125C2.4375 1.64062 2.25 1.3125 2.25 0.9375C2.25 0.421875 2.625 0 3.14062 0H9.75C14.7188 0 18.75 4.03125 18.75 9V9.70312C18.75 10.2656 18.7031 10.7812 18.5625 11.2969L17.25 18.75H2.25C2.25 17.8125 2.67188 16.9688 3.46875 16.4062L9.46875 12.3281C9.98438 12 9.98438 11.2969 9.51562 10.9219C9.1875 10.6875 8.76562 10.6875 8.4375 10.9219L6.14062 12.6562C6.04688 12.75 5.90625 12.7969 5.8125 12.8438L5.625 12.9375C4.92188 13.3125 4.07812 13.2656 3.375 12.7969L2.90625 12.4688C2.48438 12.1875 2.25 11.7188 2.25 11.2031V5.01562C2.25 4.21875 2.53125 3.46875 3.09375 2.90625L3.75 2.25ZM4.875 5.4375C4.875 6 5.25 6.375 5.8125 6.375C6.32812 6.375 6.75 6 6.75 5.4375C6.75 4.92188 6.32812 4.5 5.8125 4.5C5.25 4.5 4.875 4.92188 4.875 5.4375ZM0.28125 22.2188L2.25 20.25H17.25L19.1719 22.2188C19.3594 22.4062 19.5 22.6875 19.5 22.9688C19.5 23.5312 18.9844 24 18.4219 24H1.03125C0.46875 24 0 23.5312 0 22.9688C0 22.6875 0.09375 22.4062 0.28125 22.2188Z" fill="#333333"/>
</svg>
