<svg width="26" height="24" viewBox="0 0 26 24" fill="none" xmlns="http://www.w3.org/2000/svg">
<path d="M12.5625 24C8.25 24 4.3125 21.75 2.15625 18C0 14.2969 0 9.75 2.15625 6C4.3125 2.29688 8.25 0 12.5625 0C16.8281 0 20.7656 2.29688 22.9219 6C25.0781 9.75 25.0781 14.2969 22.9219 18C20.7656 21.75 16.8281 24 12.5625 24ZM14.9062 15.2812C15.3281 15.0938 15.6094 14.8125 15.7969 14.3906L18.375 7.64062C18.75 6.70312 17.8594 5.8125 16.9219 6.1875L10.1719 8.76562C9.75 8.95312 9.46875 9.23438 9.28125 9.65625L6.70312 16.4062C6.32812 17.2969 7.26562 18.2344 8.15625 17.8594L14.9062 15.2812ZM14.0625 12C14.0625 12.8438 13.3594 13.5 12.5625 13.5C11.7188 13.5 11.0625 12.8438 11.0625 12C11.0625 11.2031 11.7188 10.5 12.5625 10.5C13.3594 10.5 14.0625 11.2031 14.0625 12Z" fill="#333333"/>
</svg>
