<svg width="25" height="22" viewBox="0 0 25 22" fill="none" xmlns="http://www.w3.org/2000/svg">
<path d="M5.57812 0.46875C5.8125 0.1875 6.14062 0 6.51562 0H17.7656C18.0938 0 18.4219 0.1875 18.6562 0.46875L23.9062 7.59375C24.2344 8.01562 24.1875 8.625 23.8125 9.04688L12.9375 21.0469C12.75 21.2812 12.4219 21.4219 12.1406 21.4219C11.8125 21.4219 11.4844 21.2812 11.2969 21.0469L0.421875 9.04688C0.046875 8.625 0 8.01562 0.328125 7.59375L5.57812 0.46875ZM7.40625 2.34375C7.21875 2.48438 7.21875 2.67188 7.3125 2.85938L9.98438 7.3125L3.09375 7.875C2.90625 7.92188 2.76562 8.0625 2.76562 8.25C2.76562 8.48438 2.90625 8.625 3.09375 8.625L12.0938 9.375H12.1406L21.1406 8.625C21.3281 8.625 21.4688 8.48438 21.4688 8.25C21.4688 8.0625 21.3281 7.92188 21.1406 7.875L14.25 7.3125L16.9219 2.85938C17.0625 2.67188 17.0156 2.48438 16.8281 2.34375C16.6875 2.25 16.4531 2.25 16.3594 2.39062L12.1406 6.98438L7.875 2.39062C7.78125 2.25 7.54688 2.25 7.40625 2.34375Z" fill="#333333"/>
</svg>
