<svg width="25" height="25" viewBox="0 0 25 25" fill="none" xmlns="http://www.w3.org/2000/svg">
<path d="M22.125 1.17188L23.2031 2.25C24.375 3.42188 24.375 5.34375 23.2031 6.51562L20.5781 9.14062L15.2344 3.79688L17.8594 1.17188C19.0312 0 20.9531 0 22.125 1.17188ZM2.20312 16.8281L14.1562 4.875L19.5 10.2188L7.54688 22.1719C7.26562 22.4531 6.84375 22.6875 6.42188 22.8281L1.54688 24.1875C1.17188 24.3281 0.75 24.2344 0.46875 23.9062C0.140625 23.625 0.046875 23.2031 0.140625 22.8281L1.54688 17.9531C1.6875 17.5312 1.92188 17.1094 2.20312 16.8281ZM11.8125 5.10938L4.96875 11.9531L0.890625 7.82812C0 6.98438 0 5.53125 0.890625 4.64062L4.54688 0.984375C5.39062 0.140625 6.84375 0.140625 7.73438 0.984375L8.625 1.92188C8.625 1.96875 8.625 1.96875 8.57812 1.96875L5.57812 4.96875C5.29688 5.25 5.29688 5.76562 5.57812 6.04688C5.90625 6.32812 6.375 6.32812 6.65625 6.04688L9.65625 3.04688C9.65625 3 9.70312 3 9.70312 3L11.8125 5.10938ZM19.2656 12.5625L21.375 14.6719C21.375 14.6719 21.375 14.7188 21.3281 14.7188L18.3281 17.7188C18.0469 18 18.0469 18.4688 18.3281 18.7969C18.6094 19.0781 19.125 19.0781 19.4062 18.7969L22.4062 15.7969C22.4062 15.75 22.4062 15.75 22.4531 15.75L23.3906 16.6875C24.2344 17.5312 24.2344 18.9844 23.3906 19.8281L19.6875 23.4844C18.8438 24.375 17.3906 24.375 16.5469 23.4844L12.4219 19.4062L19.2656 12.5625Z" fill="#333333"/>
</svg>
