<svg width="25" height="25" viewBox="0 0 25 25" fill="none" xmlns="http://www.w3.org/2000/svg">
<path d="M7.40625 18.4219L5.95312 16.9688C5.57812 16.5938 5.4375 16.0312 5.625 15.4688C5.76562 15.0469 5.95312 14.5312 6.14062 13.875H1.21875C0.796875 13.875 0.421875 13.6875 0.234375 13.3125C0 12.9844 0 12.5625 0.234375 12.1875L2.67188 8.0625C3.28125 7.03125 4.40625 6.375 5.57812 6.375H9.46875C9.5625 6.1875 9.65625 6.04688 9.79688 5.85938C13.6406 0.1875 19.3594 0 22.7344 0.65625C23.2969 0.75 23.7188 1.17188 23.8125 1.73438C24.4688 5.10938 24.2812 10.8281 18.6094 14.6719C18.4219 14.8125 18.2812 14.9062 18.0938 15V18.8906C18.0938 20.0625 17.4375 21.1875 16.4062 21.7969L12.2812 24.2344C11.9062 24.4688 11.4844 24.4688 11.1562 24.2344C10.7812 24.0469 10.5938 23.6719 10.5938 23.25V18.2344C9.89062 18.4688 9.32812 18.6562 8.90625 18.7969C8.39062 18.9844 7.78125 18.8438 7.40625 18.4219ZM18.0938 8.25C18.75 8.25 19.3594 7.92188 19.6875 7.3125C20.0156 6.75 20.0156 6.04688 19.6875 5.4375C19.3594 4.875 18.75 4.5 18.0938 4.5C17.3906 4.5 16.7812 4.875 16.4531 5.4375C16.125 6.04688 16.125 6.75 16.4531 7.3125C16.7812 7.92188 17.3906 8.25 18.0938 8.25Z" fill="#333333"/>
</svg>
