<svg width="20" height="24" viewBox="0 0 20 24" fill="none" xmlns="http://www.w3.org/2000/svg">
<path d="M7.5 0H9.75H12C12.7969 0 13.5 0.703125 13.5 1.5C13.5 2.34375 12.7969 3 12 3H11.25V4.64062C12.9844 4.92188 14.5781 5.625 15.8906 6.70312L16.9219 5.71875C17.4844 5.10938 18.4688 5.10938 19.0312 5.71875C19.6406 6.28125 19.6406 7.26562 19.0312 7.82812L17.9062 8.95312C18.8906 10.5 19.5 12.3281 19.5 14.25C19.5 19.6406 15.0938 24 9.75 24C4.35938 24 0 19.6406 0 14.25C0 9.375 3.5625 5.34375 8.25 4.64062V3H7.5C6.65625 3 6 2.34375 6 1.5C6 0.703125 6.65625 0 7.5 0ZM10.875 9C10.875 8.39062 10.3594 7.875 9.75 7.875C9.09375 7.875 8.625 8.39062 8.625 9V15C8.625 15.6562 9.09375 16.125 9.75 16.125C10.3594 16.125 10.875 15.6562 10.875 15V9Z" fill="#333333"/>
</svg>
