<svg viewBox="0 0 21 21" fill="none" xmlns="http://www.w3.org/2000/svg"><path d="M17.8125 3.09375C19.7812 5.0625 21 7.64062 21 10.4531C21 16.1719 16.2188 20.8594 10.4531 20.8594C8.71875 20.8594 7.03125 20.3906 5.48438 19.5938L0 21L1.45312 15.6094C0.5625 14.0625 0.046875 12.2812 0.046875 10.4062C0.046875 4.6875 4.73438 0 10.4531 0C13.2656 0 15.8906 1.125 17.8125 3.09375ZM10.4531 19.0781C15.2344 19.0781 19.2188 15.1875 19.2188 10.4531C19.2188 8.10938 18.2344 5.95312 16.5938 4.3125C14.9531 2.67188 12.7969 1.78125 10.5 1.78125C5.71875 1.78125 1.82812 5.67188 1.82812 10.4062C1.82812 12.0469 2.29688 13.6406 3.14062 15.0469L3.375 15.375L2.48438 18.5625L5.76562 17.6719L6.04688 17.8594C7.40625 18.6562 8.90625 19.0781 10.4531 19.0781ZM15.2344 12.6094C15.4688 12.75 15.6562 12.7969 15.7031 12.9375C15.7969 13.0312 15.7969 13.5469 15.5625 14.1562C15.3281 14.7656 14.2969 15.3281 13.8281 15.375C12.9844 15.5156 12.3281 15.4688 10.6875 14.7188C8.0625 13.5938 6.375 10.9688 6.23438 10.8281C6.09375 10.6406 5.20312 9.42188 5.20312 8.10938C5.20312 6.84375 5.85938 6.23438 6.09375 5.95312C6.32812 5.67188 6.60938 5.625 6.79688 5.625C6.9375 5.625 7.125 5.625 7.26562 5.625C7.45312 5.625 7.64062 5.57812 7.875 6.09375C8.0625 6.60938 8.625 7.875 8.67188 8.01562C8.71875 8.15625 8.76562 8.29688 8.67188 8.48438C8.20312 9.46875 7.64062 9.42188 7.92188 9.89062C8.95312 11.625 9.9375 12.2344 11.4844 12.9844C11.7188 13.125 11.8594 13.0781 12.0469 12.9375C12.1875 12.75 12.7031 12.1406 12.8438 11.9062C13.0312 11.625 13.2188 11.6719 13.4531 11.7656C13.6875 11.8594 14.9531 12.4688 15.2344 12.6094Z" fill="white"/></svg>